<svg width="57" height="48" viewBox="0 0 57 48" fill="none" xmlns="http://www.w3.org/2000/svg">
<path d="M25.5938 5.625C25.3021 6.04167 24.9896 6.4375 24.6562 6.8125C24.3438 7.16667 23.9479 7.44792 23.4688 7.65625C23.2188 9.09375 23.0104 10.5417 22.8438 12C22.6979 13.4583 22.5312 14.9167 22.3438 16.375C22.1771 17.8333 21.9792 19.2917 21.75 20.75C21.5417 22.1875 21.25 23.6146 20.875 25.0312L20.9062 25.4062C20.9479 25.8229 20.8958 26.2188 20.75 26.5938C20.6042 26.9688 20.5417 27.375 20.5625 27.8125C20.2708 28.5417 20.0208 29.3542 19.8125 30.25C19.6042 31.125 19.4792 31.9583 19.4375 32.75C19.2292 33.1042 19.0521 33.4896 18.9062 33.9062C18.7812 34.3229 18.6458 34.75 18.5 35.1875C18.375 35.6042 18.2292 36.0104 18.0625 36.4062C17.8958 36.7812 17.6771 37.125 17.4062 37.4375C17.3438 37.9167 17.2188 38.3646 17.0312 38.7812C16.8646 39.2188 16.6667 39.6458 16.4375 40.0625C16.2292 40.4792 16.0208 40.8854 15.8125 41.2812C15.625 41.6979 15.4896 42.1354 15.4062 42.5938C15.0521 43.1354 14.6979 43.6562 14.3438 44.1562C13.9896 44.6771 13.6667 45.2188 13.375 45.7812C13.1042 45.9062 12.8646 46.0417 12.6562 46.1875C12.4688 46.3542 12.2812 46.5 12.0938 46.625C11.9062 46.7708 11.6875 46.8958 11.4375 47C11.2083 47.1042 10.9271 47.1562 10.5938 47.1562C10.5104 47.1562 10.4271 47.1458 10.3438 47.125C10.2812 47.125 10.2083 47.125 10.125 47.125C9.83333 46.8958 9.54167 46.6667 9.25 46.4375C8.95833 46.2292 8.64583 46.0417 8.3125 45.875C8.3125 45.75 8.29167 45.6458 8.25 45.5625C8.22917 45.4792 8.20833 45.3958 8.1875 45.3125C8.16667 45.2292 8.15625 45.1458 8.15625 45.0625C8.15625 44.9792 8.17708 44.875 8.21875 44.75C8.03125 44.625 7.8125 44.3958 7.5625 44.0625C7.33333 43.75 7.21875 43.4792 7.21875 43.25C7.21875 43.0417 7.29167 42.9375 7.4375 42.9375C7.39583 42.7292 7.32292 42.5208 7.21875 42.3125C7.13542 42.125 7.09375 41.9271 7.09375 41.7188C7.09375 41.5729 7.13542 41.4167 7.21875 41.25C6.98958 40.7083 6.78125 40.1458 6.59375 39.5625C6.40625 39 6.28125 38.4167 6.21875 37.8125C6.01042 37.5417 5.84375 37.2292 5.71875 36.875C5.61458 36.5 5.53125 36.1146 5.46875 35.7188C5.40625 35.3229 5.35417 34.9375 5.3125 34.5625C5.27083 34.1667 5.21875 33.8021 5.15625 33.4688C5.13542 33.3438 5.08333 33.1458 5 32.875C4.91667 32.5833 4.875 32.3854 4.875 32.2812C4.875 32.1562 4.89583 32.0625 4.9375 32C5 31.9375 5.05208 31.8542 5.09375 31.75C4.84375 30.75 4.63542 29.7396 4.46875 28.7188C4.32292 27.6979 4.17708 26.6771 4.03125 25.6562C3.90625 24.6354 3.75 23.625 3.5625 22.625C3.39583 21.6042 3.15625 20.6042 2.84375 19.625V19.3438C2.84375 18.6771 2.58333 18.1458 2.0625 17.75C2.16667 17.4375 2.21875 17.1771 2.21875 16.9688C2.21875 16.6979 2.17708 16.4375 2.09375 16.1875C2.03125 15.9375 1.95833 15.6875 1.875 15.4375C1.79167 15.1875 1.72917 14.9375 1.6875 14.6875C1.66667 14.4375 1.6875 14.1875 1.75 13.9375C1.52083 13.6875 1.33333 13.4167 1.1875 13.125C1.04167 12.8333 0.854167 12.5833 0.625 12.375L0.59375 12.1875C0.59375 12.0833 0.625 11.9896 0.6875 11.9062C0.729167 11.8229 0.75 11.7292 0.75 11.625C0.75 11.4792 0.71875 11.3542 0.65625 11.25C0.572917 11.1458 0.489583 11.0521 0.40625 10.9688C0.302083 10.8854 0.21875 10.8021 0.15625 10.7188C0.0729167 10.6354 0.03125 10.5417 0.03125 10.4375C0.03125 10.1875 0.114583 9.98958 0.28125 9.84375C0.447917 9.69792 0.635417 9.57292 0.84375 9.46875C1.05208 9.34375 1.25 9.21875 1.4375 9.09375C1.64583 8.96875 1.78125 8.79167 1.84375 8.5625C2.01042 8.60417 2.17708 8.63542 2.34375 8.65625C2.51042 8.65625 2.67708 8.69792 2.84375 8.78125C2.86458 8.76042 2.875 8.72917 2.875 8.6875C2.875 8.625 2.77083 8.57292 2.5625 8.53125C2.375 8.46875 2.25 8.39583 2.1875 8.3125C2.35417 8.27083 2.47917 8.25 2.5625 8.25C2.97917 8.25 3.375 8.35417 3.75 8.5625C4.14583 8.77083 4.52083 8.98958 4.875 9.21875C4.91667 9.40625 4.92708 9.60417 4.90625 9.8125C4.88542 10 4.94792 10.1771 5.09375 10.3438C5.07292 10.4479 5.0625 10.5417 5.0625 10.625C5.08333 10.7083 5.09375 10.7917 5.09375 10.875C5.09375 10.9792 5.07292 11.0729 5.03125 11.1562C5.01042 11.2188 4.95833 11.25 4.875 11.25C5.02083 11.5 5.11458 11.8021 5.15625 12.1562C5.21875 12.5104 5.27083 12.875 5.3125 13.25C5.375 13.625 5.44792 13.9896 5.53125 14.3438C5.61458 14.6979 5.77083 15.0104 6 15.2812C5.95833 15.4062 5.92708 15.5312 5.90625 15.6562C5.90625 15.7812 5.90625 15.9167 5.90625 16.0625C5.90625 16.7292 5.98958 17.3854 6.15625 18.0312C6.32292 18.6771 6.40625 19.3333 6.40625 20C6.40625 20.3958 6.34375 20.7604 6.21875 21.0938C6.21875 21.2812 6.28125 21.4375 6.40625 21.5625C6.53125 21.6667 6.61458 21.8125 6.65625 22C6.55208 22.25 6.5 22.4896 6.5 22.7188C6.5 23.1979 6.59375 23.6562 6.78125 24.0938C6.96875 24.5104 7.0625 24.9479 7.0625 25.4062C7.0625 25.5521 7.04167 25.6875 7 25.8125C6.95833 25.9375 6.91667 26.0521 6.875 26.1562C7.0625 26.3438 7.15625 26.5833 7.15625 26.875C7.17708 27.1667 7.27083 27.4062 7.4375 27.5938C7.41667 27.6979 7.39583 27.8021 7.375 27.9062C7.375 28.0104 7.32292 28.0938 7.21875 28.1562C7.32292 28.3021 7.375 28.5 7.375 28.75C7.39583 28.9792 7.48958 29.1146 7.65625 29.1562C7.61458 29.2604 7.58333 29.3542 7.5625 29.4375C7.54167 29.5208 7.53125 29.6146 7.53125 29.7188C7.53125 29.9479 7.5625 30.1562 7.625 30.3438L7.8125 30.9062C7.875 31.0938 7.91667 31.2917 7.9375 31.5C7.97917 31.7083 7.95833 31.9375 7.875 32.1875C7.95833 32.3125 8.02083 32.4583 8.0625 32.625C8.125 32.7917 8.17708 32.9688 8.21875 33.1562C8.26042 33.3229 8.32292 33.4792 8.40625 33.625C8.48958 33.75 8.61458 33.8333 8.78125 33.875C8.80208 34 8.75 34.0625 8.625 34.0625C8.52083 34.0625 8.46875 34.1146 8.46875 34.2188C8.46875 34.3854 8.53125 34.5938 8.65625 34.8438C8.78125 35.0729 8.89583 35.2396 9 35.3438C8.97917 35.4271 8.96875 35.5104 8.96875 35.5938V35.875C8.96875 36.1667 9.01042 36.4688 9.09375 36.7812C9.17708 37.0729 9.25 37.3646 9.3125 37.6562C9.39583 37.9688 9.45833 38.2708 9.5 38.5625C9.54167 38.8542 9.52083 39.125 9.4375 39.375C9.60417 39.6667 9.75 39.9792 9.875 40.3125C10 40.6458 10.1979 40.9271 10.4688 41.1562C10.4688 41.5104 10.5417 41.8438 10.6875 42.1562C10.8333 42.4896 11.0208 42.8021 11.25 43.0938C11.4583 43.0938 11.6146 43.0208 11.7188 42.875C11.8229 42.75 11.9062 42.6042 11.9688 42.4375C12.0312 42.2708 12.1042 42.1146 12.1875 41.9688C12.2708 41.8229 12.4062 41.7396 12.5938 41.7188C12.6146 41.5104 12.6667 41.3333 12.75 41.1875C12.8542 41.0625 12.9479 40.9271 13.0312 40.7812C13.1354 40.6354 13.2188 40.4792 13.2812 40.3125C13.3646 40.1458 13.3958 39.9375 13.375 39.6875L13.7188 39.5938C13.8229 39.0312 13.9792 38.5208 14.1875 38.0625C14.4167 37.625 14.6667 37.1667 14.9375 36.6875V36.5312C14.9375 36.3229 14.9688 36.1458 15.0312 36C15.0938 35.8542 15.1042 35.6667 15.0625 35.4375C15.2083 35.3958 15.3125 35.3125 15.375 35.1875C15.4375 35.0625 15.4896 34.9375 15.5312 34.8125C15.5729 34.6667 15.6146 34.5312 15.6562 34.4062C15.7188 34.2604 15.8125 34.1562 15.9375 34.0938V33.8438C15.9167 33.6562 15.9271 33.4792 15.9688 33.3125C16.0312 33.125 16.0208 32.9375 15.9375 32.75C16.1042 32.6875 16.2292 32.5833 16.3125 32.4375C16.3958 32.2917 16.4583 32.1354 16.5 31.9688C16.5625 31.8021 16.5938 31.625 16.5938 31.4375C16.6146 31.25 16.625 31.0833 16.625 30.9375C16.7708 30.75 16.875 30.5312 16.9375 30.2812C17 30.0104 17.0521 29.7396 17.0938 29.4688C17.1354 29.1979 17.1875 28.9375 17.25 28.6875C17.3333 28.4375 17.4583 28.2188 17.625 28.0312C17.5833 27.9271 17.5625 27.8333 17.5625 27.75V27.4688C17.5625 27.0729 17.625 26.7188 17.75 26.4062C17.875 26.0729 17.9896 25.7188 18.0938 25.3438C18.3646 24.4062 18.5521 23.4479 18.6562 22.4688C18.7812 21.4688 18.9583 20.4896 19.1875 19.5312C19.2083 19.4271 19.25 19.2604 19.3125 19.0312C19.375 18.8021 19.4375 18.5729 19.5 18.3438C19.5625 18.0938 19.6146 17.875 19.6562 17.6875C19.7188 17.4792 19.75 17.3438 19.75 17.2812C19.75 17.1146 19.7083 17 19.625 16.9375C19.5625 16.875 19.5312 16.7708 19.5312 16.625C19.6562 16.4375 19.7396 16.1979 19.7812 15.9062C19.8229 15.6146 19.8542 15.3125 19.875 15C19.8958 14.6667 19.8958 14.3542 19.875 14.0625C19.875 13.75 19.875 13.4792 19.875 13.25C19.875 13.0208 19.9271 12.7292 20.0312 12.375C20.1354 12.0208 20.2083 11.7083 20.25 11.4375C20.3542 10.7292 20.4167 10.0312 20.4375 9.34375C20.4792 8.63542 20.5208 7.92708 20.5625 7.21875C20.7083 7.13542 20.8125 7.03125 20.875 6.90625C20.9375 6.76042 20.9688 6.61458 20.9688 6.46875C20.9688 6.23958 20.9375 6.02083 20.875 5.8125C20.8333 5.60417 20.8125 5.38542 20.8125 5.15625C20.8125 5.05208 20.8229 4.94792 20.8438 4.84375C20.8646 4.71875 20.9167 4.61458 21 4.53125C20.9792 4.38542 20.9583 4.23958 20.9375 4.09375C20.9375 3.94792 20.8854 3.82292 20.7812 3.71875C20.8854 3.44792 20.9375 3.17708 20.9375 2.90625C20.9375 2.65625 20.9062 2.40625 20.8438 2.15625C20.8021 1.90625 20.7812 1.64583 20.7812 1.375C20.7812 0.854167 21 0.479167 21.4375 0.25H21.875C22.0833 0.25 22.2917 0.239583 22.5 0.21875C22.7083 0.197917 22.9271 0.135417 23.1562 0.03125C23.4271 0.322917 23.7083 0.645833 24 1C24.2917 1.33333 24.5417 1.69792 24.75 2.09375C24.9583 2.48958 25.1146 2.89583 25.2188 3.3125C25.3229 3.72917 25.3333 4.16667 25.25 4.625C25.3333 4.79167 25.3854 4.95833 25.4062 5.125C25.4271 5.29167 25.4896 5.45833 25.5938 5.625ZM19.2188 22.6562C19.1354 22.6354 19.0729 22.6042 19.0312 22.5625C19.0104 22.5 18.9479 22.4583 18.8438 22.4375V22.7812H19.0938L19.2188 22.6562Z" fill="#828282"/>
<path d="M56.4375 8.71875C56.4375 9.44792 56.3021 10.1562 56.0312 10.8438C55.7604 11.5104 55.5625 12.1979 55.4375 12.9062C54.9792 13.5104 54.5521 14.1354 54.1562 14.7812C53.7604 15.4271 53.3542 16.0729 52.9375 16.7188C52.5208 17.3646 52.0833 17.9896 51.625 18.5938C51.1667 19.1771 50.6458 19.7083 50.0625 20.1875C50.0833 20.2083 50.0938 20.25 50.0938 20.3125C50.0938 20.4375 50.0312 20.5417 49.9062 20.625C49.8021 20.6875 49.7708 20.7708 49.8125 20.875C49.2917 21.4167 48.7812 21.9479 48.2812 22.4688C47.7812 22.9896 47.3229 23.5729 46.9062 24.2188C46.4479 24.4479 46.0729 24.8229 45.7812 25.3438C45.6562 25.3438 45.5625 25.375 45.5 25.4375C45.4375 25.4792 45.3542 25.5208 45.25 25.5625C44.5833 26.375 43.8854 27.1458 43.1562 27.875C42.4271 28.6042 41.6458 29.2708 40.8125 29.875C40.5 30.1042 40.1875 30.3125 39.875 30.5C39.5625 30.6875 39.2604 30.8854 38.9688 31.0938C38.7812 31.2188 38.5938 31.3646 38.4062 31.5312C38.2396 31.6979 38.0625 31.8542 37.875 32C37.2708 32.5208 36.6771 32.9583 36.0938 33.3125C35.5104 33.6458 34.8229 33.875 34.0312 34C33.9688 34.2292 33.9375 34.4792 33.9375 34.75V35.5C33.9375 35.75 33.9271 36.0104 33.9062 36.2812C33.8854 36.5312 33.8125 36.7708 33.6875 37V37.0938C33.6875 37.3021 33.7396 37.5 33.8438 37.6875C33.9479 37.8958 34 38.1042 34 38.3125C34 38.4583 33.9271 38.5833 33.7812 38.6875H34.5938C34.5938 38.9792 34.6771 39.2292 34.8438 39.4375C35.0312 39.6458 35.125 39.8021 35.125 39.9062C35.125 40.2604 35.0833 40.6458 35 41.0625C34.9375 41.5 34.7292 41.7917 34.375 41.9375V42.125C34.375 42.3333 34.3542 42.5312 34.3125 42.7188C34.2708 42.9271 34.1771 43.125 34.0312 43.3125C33.9062 43.3125 33.7812 43.3125 33.6562 43.3125C33.5521 43.3333 33.4479 43.3438 33.3438 43.3438C32.4688 43.3438 31.6875 43.1354 31 42.7188C30.7708 42.1771 30.6146 41.6146 30.5312 41.0312C30.4688 40.4688 30.4375 39.8958 30.4375 39.3125C30.4375 38.1667 30.5208 37.0312 30.6875 35.9062C30.8542 34.7812 30.9896 33.6562 31.0938 32.5312L31.5625 31.625C31.6042 31.0417 31.6771 30.4583 31.7812 29.875C31.8854 29.2708 31.9896 28.6771 32.0938 28.0938C32.1979 27.5104 32.2812 26.9271 32.3438 26.3438C32.4271 25.7604 32.4583 25.1771 32.4375 24.5938C32.6042 24.2396 32.7188 23.8646 32.7812 23.4688C32.8646 23.0729 32.9062 22.6875 32.9062 22.3125C32.9062 22.1042 32.8958 21.8958 32.875 21.6875C32.8542 21.4792 32.7917 21.2812 32.6875 21.0938C32.8125 21.0104 32.8958 20.9062 32.9375 20.7812C32.9792 20.6562 33.0417 20.5417 33.125 20.4375C33.1875 19.625 33.2396 18.8229 33.2812 18.0312C33.3229 17.2188 33.3438 16.4167 33.3438 15.625C33.3438 15.1875 33.3333 14.7604 33.3125 14.3438C33.2917 13.9062 33.2604 13.4688 33.2188 13.0312C33.1979 12.8646 33.1562 12.6667 33.0938 12.4375C33.0521 12.2083 33.0312 12.0312 33.0312 11.9062C33.0312 11.7396 33.0417 11.5729 33.0625 11.4062C33.0833 11.2188 33.0938 11.0312 33.0938 10.8438C33.0938 10.6354 33.0729 10.4375 33.0312 10.25C32.9896 10.0417 32.9167 9.85417 32.8125 9.6875C31.8125 9.97917 30.9167 10.375 30.125 10.875C29.3333 11.3542 28.5312 11.8958 27.7188 12.5C27.3854 12.7292 27.0208 13 26.625 13.3125C26.2292 13.625 25.8542 13.8646 25.5 14.0312C25.4375 14.0729 25.3646 14.1042 25.2812 14.125C25.1771 14.125 25.0938 14.125 25.0312 14.125C24.8021 14.125 24.5938 14.1146 24.4062 14.0938C24.2188 14.0521 24.0312 14.0312 23.8438 14.0312C23.5521 13.7396 23.2083 13.5104 22.8125 13.3438C22.75 13.0938 22.7188 12.8229 22.7188 12.5312C22.7188 12.2396 22.75 11.9583 22.8125 11.6875C22.8542 11.4167 22.9271 11.1458 23.0312 10.875C23.2812 10.7917 23.5521 10.6979 23.8438 10.5938C24.1146 10.4896 24.3854 10.375 24.6562 10.25C24.9062 10.1042 25.1354 9.94792 25.3438 9.78125C25.5521 9.59375 25.7188 9.36458 25.8438 9.09375C25.9688 9.15625 26.0833 9.1875 26.1875 9.1875C26.2917 9.1875 26.3854 9.17708 26.4688 9.15625C26.5521 9.13542 26.6458 9.11458 26.75 9.09375C27.125 8.86458 27.5 8.625 27.875 8.375C28.2708 8.125 28.6771 7.91667 29.0938 7.75C29.2188 7.70833 29.2917 7.65625 29.3125 7.59375C29.3333 7.53125 29.3333 7.4375 29.3125 7.3125C29.7917 7.16667 30.2917 7 30.8125 6.8125C31.3333 6.60417 31.7708 6.32292 32.125 5.96875H32.6875C33 5.73958 33.3333 5.55208 33.6875 5.40625C34.0417 5.26042 34.3958 5.125 34.75 5C35.125 4.85417 35.4896 4.70833 35.8438 4.5625C36.1979 4.39583 36.5312 4.1875 36.8438 3.9375C36.9688 3.89583 37.0729 3.875 37.1562 3.875C37.2604 3.875 37.375 3.89583 37.5 3.9375C37.7083 3.83333 37.8854 3.70833 38.0312 3.5625L38.5312 3.0625C38.8646 3.0625 39.1667 3.03125 39.4375 2.96875C39.7083 2.90625 39.9688 2.82292 40.2188 2.71875C40.4688 2.61458 40.7083 2.5 40.9375 2.375C41.1875 2.22917 41.4583 2.08333 41.75 1.9375C41.875 1.97917 41.9688 2.03125 42.0312 2.09375C42.0938 2.13542 42.1979 2.15625 42.3438 2.15625C42.5521 2.01042 42.7708 1.90625 43 1.84375C43.25 1.76042 43.5 1.69792 43.75 1.65625C44 1.61458 44.2396 1.5625 44.4688 1.5C44.7188 1.4375 44.9375 1.32292 45.125 1.15625C45.7917 1.15625 46.4583 1.14583 47.125 1.125C47.8125 1.08333 48.4896 1.0625 49.1562 1.0625C50.1146 1.0625 51.0833 1.13542 52.0625 1.28125C53.0625 1.42708 53.9583 1.79167 54.75 2.375C55.0625 3.125 55.5104 3.76042 56.0938 4.28125C56.1354 4.51042 56.1771 4.72917 56.2188 4.9375C56.2812 5.125 56.3542 5.3125 56.4375 5.5C56.2917 5.8125 56.2188 6.15625 56.2188 6.53125C56.2188 6.90625 56.25 7.28125 56.3125 7.65625C56.3958 8.01042 56.4375 8.36458 56.4375 8.71875ZM53.5312 7.96875C53.4271 7.78125 53.3542 7.57292 53.3125 7.34375C53.2917 7.09375 53.2917 6.85417 53.3125 6.625C53.0417 6.41667 52.8333 6.14583 52.6875 5.8125C52.5417 5.47917 52.3333 5.22917 52.0625 5.0625C51.875 4.95833 51.6042 4.89583 51.25 4.875C50.9167 4.85417 50.6354 4.8125 50.4062 4.75C50.1354 4.66667 49.9479 4.58333 49.8438 4.5C49.7604 4.41667 49.5729 4.375 49.2812 4.375C49.0312 4.375 48.7812 4.40625 48.5312 4.46875C48.2812 4.51042 48.0312 4.53125 47.7812 4.53125C47.5729 4.53125 47.375 4.48958 47.1875 4.40625C47 4.32292 46.8021 4.28125 46.5938 4.28125C46.3646 4.28125 46.1458 4.35417 45.9375 4.5C45.75 4.64583 45.5208 4.6875 45.25 4.625C45.125 4.72917 45.0521 4.8125 45.0312 4.875C45.0312 4.9375 45.0208 4.98958 45 5.03125C44.9792 5.05208 44.9271 5.0625 44.8438 5.0625H44.4062C43.9688 5.0625 43.5208 5.125 43.0625 5.25C42.625 5.375 42.2292 5.58333 41.875 5.875C41.8125 5.85417 41.75 5.84375 41.6875 5.84375C41.6458 5.82292 41.5938 5.8125 41.5312 5.8125C41.1771 5.8125 40.8333 5.91667 40.5 6.125C40.1875 6.3125 39.8333 6.40625 39.4375 6.40625C39.1875 6.65625 38.8854 6.85417 38.5312 7C38.1771 7.14583 37.8125 7.29167 37.4375 7.4375C37.0833 7.5625 36.75 7.71875 36.4375 7.90625C36.125 8.07292 35.8854 8.32292 35.7188 8.65625C35.6979 8.82292 35.75 8.92708 35.875 8.96875C36 9.01042 36.0625 9.11458 36.0625 9.28125C36.0625 9.42708 36.0312 9.60417 35.9688 9.8125C35.9271 10.0208 35.9062 10.2292 35.9062 10.4375C35.9062 10.9167 35.9583 11.3854 36.0625 11.8438C36.1667 12.3021 36.2708 12.7708 36.375 13.25C36.2708 13.3125 36.1979 13.4062 36.1562 13.5312C36.1146 13.6562 36.0417 13.75 35.9375 13.8125C36.2292 14.6875 36.375 15.5833 36.375 16.5C36.375 17.2292 36.2917 17.9479 36.125 18.6562C35.9792 19.3438 35.875 20.0521 35.8125 20.7812V20.8125C35.8125 20.9375 35.8542 21.0208 35.9375 21.0625C36.0208 21.1042 36.0625 21.1771 36.0625 21.2812C36.0625 21.3438 36.0521 21.3958 36.0312 21.4375C35.8021 22.8542 35.5729 24.2708 35.3438 25.6875C35.1354 27.1042 34.9583 28.5312 34.8125 29.9688H35.0625C35.6042 29.9688 36.0833 29.8125 36.5 29.5C36.9375 29.1667 37.3021 28.8021 37.5938 28.4062H38.0938C39.5938 27.0938 41.0312 25.7396 42.4062 24.3438C43.8021 22.9479 45.125 21.4479 46.375 19.8438C46.5417 19.8438 46.6562 19.8021 46.7188 19.7188C46.7812 19.6354 46.8854 19.5729 47.0312 19.5312C47.4688 18.9271 47.9271 18.3333 48.4062 17.75C48.8854 17.1458 49.4062 16.5729 49.9688 16.0312C49.9896 15.8229 50.0417 15.6354 50.125 15.4688C50.2292 15.3021 50.3333 15.1458 50.4375 15C50.5417 14.8542 50.6354 14.6979 50.7188 14.5312C50.8021 14.3646 50.8438 14.1667 50.8438 13.9375C50.9479 13.8958 51.0625 13.8542 51.1875 13.8125C51.3125 13.75 51.4271 13.6667 51.5312 13.5625C51.5729 13.3542 51.6458 13.1667 51.75 13C51.8542 12.8333 51.9062 12.6458 51.9062 12.4375C51.9062 12.3542 51.8854 12.25 51.8438 12.125C52.1771 11.9792 52.4375 11.7396 52.625 11.4062C52.8125 11.0729 52.9583 10.7083 53.0625 10.3125C53.1667 9.89583 53.2396 9.47917 53.2812 9.0625C53.3438 8.64583 53.4271 8.28125 53.5312 7.96875Z" fill="#828282"/>
</svg>
